<?xml version="1.0" encoding="utf-8"?><svg viewBox="0 0 112 112" xmlns="http://www.w3.org/2000/svg" xmlns:xlink="http://www.w3.org/1999/xlink"><style>:root>svg{display:none}:root>svg:target{display:block}</style><svg fill="none" viewBox="0 0 20 25" id="Path" xmlns="http://www.w3.org/2000/svg"><path clip-rule="evenodd" d="m2 2 16 10.286L2 22.57V2v0Z" stroke="#fff" stroke-width="4" stroke-linecap="round" stroke-linejoin="round"/></svg><svg fill="none" viewBox="0 0 112 112" id="Video_icon" xmlns="http://www.w3.org/2000/svg"><g fill-rule="evenodd" clip-rule="evenodd"><path d="M56 112c30.928 0 56-25.072 56-56S86.928 0 56 0 0 25.072 0 56s25.072 56 56 56Z" fill="#E8594E"/><path d="m46 41 24 15.429-24 15.428V41Z" fill="#fff"/></g></svg><svg data-name="Layer 1" viewBox="0 0 24 24" id="arrow-left" xmlns="http://www.w3.org/2000/svg"><path fill="#FFF" d="M17 11H9.41l3.3-3.29a1 1 0 1 0-1.42-1.42l-5 5a1 1 0 0 0-.21.33 1 1 0 0 0 0 .76 1 1 0 0 0 .21.33l5 5a1 1 0 0 0 1.42 0 1 1 0 0 0 0-1.42L9.41 13H17a1 1 0 0 0 0-2Z"/></svg><svg data-name="Layer 1" viewBox="0 0 24 24" id="arrow-right" xmlns="http://www.w3.org/2000/svg"><path fill="#FFF" d="M17.92 11.62a1 1 0 0 0-.21-.33l-5-5a1 1 0 0 0-1.42 1.42l3.3 3.29H7a1 1 0 0 0 0 2h7.59l-3.3 3.29a1 1 0 0 0 0 1.42 1 1 0 0 0 1.42 0l5-5a1 1 0 0 0 .21-.33 1 1 0 0 0 0-.76Z"/></svg><svg data-name="Layer 1" viewBox="0 0 24 24" id="facebook-f" xmlns="http://www.w3.org/2000/svg"><path fill="#FFF" d="M15.12 5.32H17V2.14A26.11 26.11 0 0 0 14.26 2c-2.72 0-4.58 1.66-4.58 4.7v2.62H6.61v3.56h3.07V22h3.68v-9.12h3.06l.46-3.56h-3.52V7.05c0-1.05.28-1.73 1.76-1.73Z"/></svg><svg viewBox="0 0 24 24" id="pause" xmlns="http://www.w3.org/2000/svg"><path fill="#FFF" d="M16 2a3 3 0 0 0-3 3v14a3 3 0 0 0 6 0V5a3 3 0 0 0-3-3Zm1 17a1 1 0 0 1-2 0V5a1 1 0 0 1 2 0ZM8 2a3 3 0 0 0-3 3v14a3 3 0 0 0 6 0V5a3 3 0 0 0-3-3Zm1 17a1 1 0 0 1-2 0V5a1 1 0 0 1 2 0Z"/></svg><svg fill="none" viewBox="0 0 34 44" id="play" xmlns="http://www.w3.org/2000/svg"><path clip-rule="evenodd" d="m1 1 32 20.571L1 42.143V1v0Z" stroke="#fff" stroke-width="2" stroke-linecap="round" stroke-linejoin="round"/></svg><svg viewBox="0 0 24 24" id="search" xmlns="http://www.w3.org/2000/svg"><path d="M21.71 20.29 18 16.61A9 9 0 1 0 16.61 18l3.68 3.68a1 1 0 0 0 1.42 0 1 1 0 0 0 0-1.39ZM11 18a7 7 0 1 1 7-7 7 7 0 0 1-7 7Z"/></svg><svg data-name="Layer 1" viewBox="0 0 24 24" id="twitter" xmlns="http://www.w3.org/2000/svg"><path fill="#FFF" d="M22 5.8a8.49 8.49 0 0 1-2.36.64 4.13 4.13 0 0 0 1.81-2.27 8.21 8.21 0 0 1-2.61 1 4.1 4.1 0 0 0-7 3.74 11.64 11.64 0 0 1-8.45-4.29 4.16 4.16 0 0 0-.55 2.07 4.09 4.09 0 0 0 1.82 3.41 4.05 4.05 0 0 1-1.86-.51v.05a4.1 4.1 0 0 0 3.3 4 3.93 3.93 0 0 1-1.1.17 4.9 4.9 0 0 1-.77-.07 4.11 4.11 0 0 0 3.83 2.84A8.22 8.22 0 0 1 3 18.34a7.93 7.93 0 0 1-1-.06 11.57 11.57 0 0 0 6.29 1.85A11.59 11.59 0 0 0 20 8.45v-.53a8.43 8.43 0 0 0 2-2.12Z"/></svg><svg fill="none" viewBox="0 0 24 24" id="user" xmlns="http://www.w3.org/2000/svg"><g stroke="#000" stroke-width="2" stroke-linecap="round" stroke-linejoin="round" opacity=".5"><path d="M20 21v-2a4 4 0 0 0-4-4H8a4 4 0 0 0-4 4v2"/><path clip-rule="evenodd" d="M12 11a4 4 0 1 0 0-8 4 4 0 0 0 0 8Z"/></g></svg></svg>